<svg width="24" height="24" viewBox="0 0 24 24" fill="none" xmlns="http://www.w3.org/2000/svg">
<mask id="mask0_17_92" style="mask-type:luminance" maskUnits="userSpaceOnUse" x="3" y="2" width="19" height="20">
<path d="M12.5 3L14.8474 4.71242L17.7535 4.70706L18.6459 7.47232L21 9.17581L20.0969 11.9375L21 14.6992L18.6459 16.4027L17.7535 19.1679L14.8474 19.1626L12.5 20.875L10.1526 19.1626L7.24654 19.1679L6.35413 16.4027L4 14.6992L4.90313 11.9375L4 9.17581L6.35413 7.47232L7.24654 4.70706L10.1526 4.71242L12.5 3Z" fill="white" stroke="white" stroke-width="1.33333" stroke-linecap="round" stroke-linejoin="round"/>
<path d="M9.37195 11.9385L11.6063 14.1728L16.0751 9.7041" stroke="black" stroke-width="1.33333" stroke-linecap="round" stroke-linejoin="round"/>
</mask>
<g mask="url(#mask0_17_92)">
<path d="M1.77502 1.21387H23.225V22.6638H1.77502V1.21387Z" fill="#34A853"/>
</g>
<path d="M19.6875 17.9321V16.6844C19.6875 16.2377 19.5097 15.8092 19.1932 15.4934C18.8768 15.1775 18.4476 15 18 15C17.5524 15 17.1232 15.1775 16.8068 15.4934C16.4903 15.8092 16.3125 16.2377 16.3125 16.6844V17.9321C16.1202 18.234 16.0126 18.5818 16.001 18.9393C15.9895 19.2969 16.0744 19.6509 16.2469 19.9645C16.4193 20.278 16.673 20.5395 16.9815 20.7217C17.2899 20.9039 17.6416 21 18 21C18.3584 21 18.7101 20.9039 19.0185 20.7217C19.327 20.5395 19.5807 20.278 19.7531 19.9645C19.9256 19.6509 20.0105 19.2969 19.999 18.9393C19.9874 18.5818 19.8798 18.234 19.6875 17.9321ZM18 19.4993C17.9011 19.4993 17.8044 19.47 17.7222 19.4152C17.64 19.3603 17.5759 19.2824 17.5381 19.1912C17.5002 19.1 17.4903 18.9996 17.5096 18.9028C17.5289 18.806 17.5765 18.7171 17.6464 18.6473C17.7164 18.5775 17.8055 18.5299 17.9025 18.5107C17.9994 18.4914 18.1 18.5013 18.1913 18.5391C18.2827 18.5769 18.3608 18.6408 18.4157 18.7229C18.4707 18.805 18.5 18.9015 18.5 19.0002C18.5 19.1326 18.4473 19.2595 18.3536 19.3531C18.2598 19.4467 18.1326 19.4993 18 19.4993ZM19.0625 17.0987C19.0622 17.1201 19.0565 17.1411 19.046 17.1599C19.0356 17.1786 19.0206 17.1944 19.0025 17.206C18.9843 17.2165 18.9636 17.222 18.9425 17.222C18.9214 17.222 18.9007 17.2165 18.8825 17.206C18.6083 17.0697 18.3063 16.9988 18 16.9988C17.6937 16.9988 17.3917 17.0697 17.1175 17.206C17.0993 17.2165 17.0786 17.222 17.0575 17.222C17.0364 17.222 17.0157 17.2165 16.9975 17.206C16.9794 17.1944 16.9644 17.1786 16.954 17.1599C16.9435 17.1411 16.9378 17.1201 16.9375 17.0987V16.6919C16.9375 16.4106 17.0494 16.1409 17.2487 15.942C17.448 15.7431 17.7182 15.6313 18 15.6313C18.2818 15.6313 18.552 15.7431 18.7513 15.942C18.9506 16.1409 19.0625 16.4106 19.0625 16.6919V17.0987Z" fill="#9FFF32"/>
</svg>
